<svg xmlns="http://www.w3.org/2000/svg" x="0px" y="0px"
width="24" height="24"
viewBox="0 0 172 172"
style=" fill:#000000;"><g fill="none" fill-rule="nonzero" stroke="none" stroke-width="1" stroke-linecap="butt" stroke-linejoin="miter" stroke-miterlimit="10" stroke-dasharray="" stroke-dashoffset="0" font-family="none" font-weight="none" font-size="none" text-anchor="none" style="mix-blend-mode: normal"><path d="M0,172v-172h172v172z" fill="none"></path><g fill="#ffffff"><path d="M71.66667,14.33333l-7.16667,7.16667h-35.83333v14.33333h7.16667v107.5c0,3.74259 1.37119,7.55804 4.07324,10.26009c2.70205,2.70205 6.5175,4.07324 10.26009,4.07324h71.66667c3.74259,0 7.55804,-1.37119 10.26009,-4.07324c2.70205,-2.70206 4.07324,-6.5175 4.07324,-10.26009v-107.5h7.16667v-14.33333h-35.83333l-7.16667,-7.16667zM50.16667,35.83333h71.66667v107.5h-71.66667zM64.5,50.16667v78.83333h14.33333v-78.83333zM93.16667,50.16667v78.83333h14.33333v-78.83333z"></path></g></g></svg>