<svg xmlns="http://www.w3.org/2000/svg" x="0px" y="0px"
width="16" height="16"
viewBox="0 0 172 172"
style=" fill:#000000;"><g fill="none" fill-rule="nonzero" stroke="none" stroke-width="1" stroke-linecap="butt" stroke-linejoin="miter" stroke-miterlimit="10" stroke-dasharray="" stroke-dashoffset="0" font-family="none" font-weight="none" font-size="none" text-anchor="none" style="mix-blend-mode: normal"><path d="M0,172v-172h172v172z" fill="none" stroke="none"></path><g fill="#d95f5f" stroke="#c74343"><path d="M86,4.3c-45.1199,0 -81.7,36.5801 -81.7,81.7c0,45.1199 36.5801,81.7 81.7,81.7c45.1199,0 81.7,-36.5801 81.7,-81.7c0,-45.1199 -36.5801,-81.7 -81.7,-81.7zM25.8,86c0,-33.2476 26.9524,-60.2 60.2,-60.2c12.7409,0 24.5358,3.9818 34.2624,10.7328l-83.7296,83.7296c-6.751,-9.7266 -10.7328,-21.5215 -10.7328,-34.2624zM86,146.2c-12.7409,0 -24.5358,-3.9818 -34.2624,-10.7328l83.7296,-83.7296c6.751,9.7266 10.7328,21.5215 10.7328,34.2624c0,33.2476 -26.9524,60.2 -60.2,60.2z"></path></g></g></svg>