<svg xmlns="http://www.w3.org/2000/svg" x="0px" y="0px"
width="16" height="16"
viewBox="0 0 172 172"
style=" fill:#000000;"><g fill="none" fill-rule="nonzero" stroke="none" stroke-width="1" stroke-linecap="butt" stroke-linejoin="miter" stroke-miterlimit="10" stroke-dasharray="" stroke-dashoffset="0" font-family="none" font-weight="none" font-size="none" text-anchor="none" style="mix-blend-mode: normal"><path d="M0,172v-172h172v172z" fill="none"></path><g fill="#65d930"><path d="M120.1979,88.15l-0.903,-9.0343l-1.5222,-0.3354c-6.4844,-1.4233 -12.3109,-4.7945 -16.8431,-9.7524l-1.0535,-1.1481l-8.299,3.7453l-4.5021,-7.8002l7.3573,-5.289l-0.4687,-1.4835c-1.0062,-3.1605 -1.5136,-6.4414 -1.5136,-9.7524c0,-3.311 0.5074,-6.5919 1.5093,-9.7524l0.4687,-1.4835l-7.3573,-5.289l4.5021,-7.8002l8.299,3.7453l1.0535,-1.1481c4.5365,-4.9579 10.3587,-8.3334 16.8431,-9.7524l1.5222,-0.3354l0.903,-9.0343h9.0085l0.903,9.0343l1.5222,0.3354c6.4844,1.4233 12.3109,4.7945 16.8431,9.7524l1.0535,1.1481l8.299,-3.7453l4.5021,7.8002l-7.3573,5.289l0.4687,1.4835c1.0062,3.1605 1.5136,6.4414 1.5136,9.7524c0,3.311 -0.5074,6.5919 -1.5093,9.7524l-0.4687,1.4835l7.3573,5.289l-4.5021,7.8002l-8.299,-3.7453l-1.0535,1.1481c-4.5365,4.9579 -10.3587,8.3334 -16.8431,9.7524l-1.5222,0.3354l-0.903,9.0343zM124.7,27.95c-10.6683,0 -19.35,8.6817 -19.35,19.35c0,10.6683 8.6817,19.35 19.35,19.35c10.6683,0 19.35,-8.6817 19.35,-19.35c0,-10.6683 -8.6817,-19.35 -19.35,-19.35z"></path><path d="M127.2585,8.6l0.5547,5.5427l0.3096,3.1046l3.0487,0.6665c6.0501,1.3244 11.4853,4.472 15.7208,9.1031l2.1027,2.3005l2.838,-1.2814l5.1041,-2.3048l2.5585,4.4333l-4.515,3.2422l-2.5327,1.8189l0.9417,2.9713c0.9374,2.9498 1.4104,6.0114 1.4104,9.1031c0,3.0917 -0.473,6.1533 -1.4061,9.0988l-0.9417,2.9713l2.5327,1.8189l4.515,3.2422l-2.5585,4.4333l-5.1084,-2.3005l-2.838,-1.2814l-2.1027,2.3005c-4.2312,4.6268 -9.6707,7.7787 -15.7208,9.1031l-3.0487,0.6665l-0.3096,3.1046l-0.5547,5.5427h-5.117l-0.5547,-5.5427l-0.3096,-3.1046l-3.0487,-0.6665c-6.0501,-1.3244 -11.4853,-4.472 -15.7208,-9.1031l-2.1027,-2.3005l-2.838,1.2814l-5.1041,2.3048l-2.5585,-4.4333l4.515,-3.2422l2.5327,-1.8189l-0.9417,-2.9713c-0.9374,-2.9498 -1.4104,-6.0114 -1.4104,-9.1031c0,-3.0917 0.473,-6.1533 1.4061,-9.0988l0.9417,-2.9713l-2.5284,-1.8189l-4.515,-3.2422l2.5585,-4.4333l5.1041,2.3005l2.838,1.2814l2.1027,-2.3005c4.2355,-4.6311 9.6707,-7.7787 15.7208,-9.1031l3.0487,-0.6665l0.3096,-3.1046l0.5547,-5.5427h5.117M124.7,68.8c11.8551,0 21.5,-9.6449 21.5,-21.5c0,-11.8551 -9.6449,-21.5 -21.5,-21.5c-11.8551,0 -21.5,9.6449 -21.5,21.5c0,11.8551 9.6449,21.5 21.5,21.5M131.15,4.3h-12.9l-0.9417,9.417c-7.052,1.5437 -13.2698,5.2632 -17.9697,10.4017l-8.6516,-3.9044l-6.45,11.1714l7.6712,5.5169c-1.0406,3.2809 -1.6082,6.7725 -1.6082,10.3974c0,3.6249 0.5676,7.1165 1.6082,10.3974l-7.6712,5.5169l6.45,11.1714l8.6516,-3.9044c4.6999,5.1385 10.922,8.858 17.9697,10.4017l0.9417,9.417h12.9l0.9417,-9.417c7.052,-1.5437 13.2698,-5.2589 17.9697,-10.4017l8.6516,3.9044l6.45,-11.1714l-7.6712,-5.5169c1.0406,-3.2809 1.6082,-6.7725 1.6082,-10.3974c0,-3.6249 -0.5676,-7.1165 -1.6082,-10.3974l7.6712,-5.5169l-6.45,-11.1714l-8.6516,3.9044c-4.6999,-5.1385 -10.922,-8.858 -17.9697,-10.4017l-0.9417,-9.417zM124.7,64.5c-9.4987,0 -17.2,-7.7013 -17.2,-17.2c0,-9.4987 7.7013,-17.2 17.2,-17.2c9.4987,0 17.2,7.7013 17.2,17.2c0,9.4987 -7.7013,17.2 -17.2,17.2z"></path><g><path d="M51.3979,165.55l-1.376,-13.7557l-1.462,-0.3698c-6.9488,-1.7544 -13.2526,-5.3879 -18.2363,-10.5092l-1.0535,-1.0793l-12.5818,5.676l-6.6521,-11.524l11.2144,-8.0625l-0.4128,-1.4491c-0.9847,-3.5002 -1.4878,-7.0391 -1.4878,-10.5264c0,-3.4873 0.5031,-7.0262 1.4878,-10.5264l0.4128,-1.4491l-11.2144,-8.0625l6.6521,-11.524l12.5818,5.676l1.0535,-1.0793c4.9837,-5.1213 11.2875,-8.7548 18.2363,-10.5092l1.462,-0.3698l1.376,-13.7557h13.3085l1.376,13.7557l1.462,0.3698c6.9488,1.7544 13.2526,5.3879 18.2363,10.5092l1.0535,1.0793l12.5818,-5.676l6.6521,11.524l-11.2144,8.0625l0.4128,1.4491c0.9847,3.5002 1.4878,7.0434 1.4878,10.5264c0,3.483 -0.5031,7.0262 -1.4878,10.5264l-0.4128,1.4491l11.2144,8.0625l-6.6521,11.524l-12.5818,-5.676l-1.0535,1.0793c-4.9837,5.1213 -11.2875,8.7548 -18.2363,10.5092l-1.462,0.3698l-1.376,13.7557zM58.05,92.45c-11.8551,0 -21.5,9.6449 -21.5,21.5c0,11.8551 9.6449,21.5 21.5,21.5c11.8551,0 21.5,-9.6449 21.5,-21.5c0,-11.8551 -9.6449,-21.5 -21.5,-21.5z"></path><path d="M62.7585,64.5l1.032,10.3157l0.301,3.0014l2.924,0.7396c6.5618,1.6598 12.5173,5.0912 17.2215,9.9244l2.1027,2.1629l2.7477,-1.2384l9.4342,-4.257l4.7085,8.1571l-8.4108,6.0458l-2.4467,1.7587l0.8213,2.9025c0.9331,3.3024 1.4061,6.6478 1.4061,9.9373c0,3.2895 -0.473,6.6349 -1.4061,9.9416l-0.8213,2.9025l2.4467,1.7587l8.4108,6.0458l-4.7085,8.1571l-9.4342,-4.257l-2.7477,-1.2384l-2.1027,2.1629c-4.7042,4.8375 -10.6597,8.2689 -17.2215,9.9244l-2.924,0.7396l-0.301,3.0014l-1.032,10.3114h-9.417l-1.032,-10.3157l-0.301,-3.0014l-2.924,-0.7396c-6.5618,-1.6598 -12.5173,-5.0912 -17.2215,-9.9244l-2.1027,-2.1629l-2.7477,1.2384l-9.4342,4.257l-4.7085,-8.1571l8.4108,-6.0458l2.4467,-1.7587l-0.8213,-2.9025c-0.9331,-3.3024 -1.4061,-6.6478 -1.4061,-9.9373c0,-3.2895 0.473,-6.6349 1.4061,-9.9416l0.8213,-2.9025l-2.4467,-1.7587l-8.4108,-6.0458l4.7085,-8.1571l9.4342,4.257l2.7477,1.2384l2.1027,-2.1629c4.7042,-4.8375 10.6597,-8.2689 17.2215,-9.9244l2.924,-0.7396l0.301,-3.0014l1.032,-10.3114h9.417M58.05,137.6c13.0419,0 23.65,-10.6081 23.65,-23.65c0,-13.0419 -10.6081,-23.65 -23.65,-23.65c-13.0419,0 -23.65,10.6081 -23.65,23.65c0,13.0419 10.6081,23.65 23.65,23.65M66.65,60.2h-17.2l-1.419,14.19c-7.439,1.8791 -14.0653,5.7663 -19.2468,11.0983l-12.9817,-5.8566l-8.6,14.8952l11.567,8.3162c-0.9976,3.5346 -1.5695,7.2498 -1.5695,11.1069c0,3.8571 0.5719,7.5723 1.5695,11.1112l-11.567,8.3162l8.6,14.8952l12.9817,-5.8566c5.1858,5.3277 11.8121,9.2192 19.2511,11.0983l1.4147,14.1857h17.2l1.419,-14.19c7.439,-1.8791 14.0653,-5.7663 19.2511,-11.0983l12.9817,5.8566l8.6,-14.8952l-11.567,-8.3162c0.9933,-3.5346 1.5652,-7.2498 1.5652,-11.1069c0,-3.8571 -0.5719,-7.5723 -1.5695,-11.1112l11.567,-8.3162l-8.6,-14.8952l-12.9817,5.8566c-5.1858,-5.3277 -11.8121,-9.2149 -19.2468,-11.0983l-1.419,-14.1857zM58.05,133.3c-10.6855,0 -19.35,-8.6645 -19.35,-19.35c0,-10.6855 8.6645,-19.35 19.35,-19.35c10.6855,0 19.35,8.6645 19.35,19.35c0,10.6855 -8.6645,19.35 -19.35,19.35z"></path></g></g></g></svg>